<?xml version="1.0" standalone="no"?>
<!DOCTYPE svg PUBLIC "-//W3C//DTD SVG 20010904//EN"
 "http://www.w3.org/TR/2001/REC-SVG-20010904/DTD/svg10.dtd">
<svg version="1.0" xmlns="http://www.w3.org/2000/svg"
 width="640.000000pt" height="320.000000pt" viewBox="0 0 640.000000 320.000000"
 preserveAspectRatio="xMidYMid meet">
<metadata>
Created by potrace 1.15, written by Peter Selinger 2001-2017
</metadata>
<g transform="translate(0.000000,320.000000) scale(0.100000,-0.100000)"
fill="#000000" stroke="none">
<path d="M5175 2604 c-211 -20 -382 -82 -485 -174 l-35 -32 40 30 c103 76 228
128 366 153 103 18 498 19 559 1 54 -17 147 -60 155 -72 3 -5 -21 5 -54 21
-100 50 -196 63 -421 55 -107 -3 -226 -12 -265 -20 -137 -29 -253 -80 -345
-155 -24 -19 -41 -30 -36 -23 15 24 -11 11 -42 -21 -34 -35 -44 -58 -14 -36
14 11 13 10 -2 -9 -21 -24 -32 -29 -20 -9 6 9 4 9 -8 -1 -23 -18 -67 -123 -73
-173 -6 -50 23 -145 42 -142 7 2 10 -3 7 -10 -3 -8 5 -25 16 -38 12 -13 19
-18 15 -11 -9 17 0 15 16 -5 10 -11 10 -14 2 -9 -22 12 -14 -10 9 -30 22 -19
23 -19 8 1 -15 20 -14 20 8 1 23 -20 30 -32 12 -21 -17 10 -11 -12 7 -26 11
-10 14 -10 9 -1 -11 18 -1 15 15 -5 12 -14 12 -16 0 -9 -9 6 -12 4 -9 -5 3 -8
10 -14 16 -14 5 0 14 -4 19 -9 5 -5 2 -6 -6 -1 -9 5 -12 3 -9 -6 3 -8 10 -14
16 -14 5 0 14 -4 19 -9 5 -6 2 -6 -6 -1 -11 6 -13 4 -8 -8 5 -15 -9 -17 -126
-20 l-132 -3 137 -2 c85 -1 138 2 141 8 3 6 4 5 3 -2 -2 -10 -49 -15 -182 -21
-98 -4 -196 -5 -217 -2 -52 7 -487 -13 -562 -26 -33 -6 -145 -39 -250 -74
-144 -49 -217 -68 -303 -79 -69 -9 -123 -21 -140 -32 -23 -15 -25 -15 -14 -1
19 22 62 34 172 47 69 8 143 27 270 70 247 83 234 80 465 95 l210 14 -185 -5
c-215 -6 -253 -13 -490 -94 -134 -45 -199 -62 -275 -71 -69 -7 -115 -18 -148
-35 -31 -15 -68 -24 -100 -25 -29 -1 -65 -5 -82 -9 -18 -4 7 -6 60 -4 l90 3
-75 -9 c-41 -4 -158 -26 -260 -49 -102 -22 -299 -61 -438 -86 -139 -25 -328
-61 -420 -81 -92 -19 -266 -55 -387 -80 -526 -108 -824 -207 -1052 -350 -45
-29 -83 -51 -83 -48 0 12 163 107 256 150 57 26 102 49 100 51 -2 2 -51 -18
-109 -46 -101 -47 -224 -120 -278 -165 -14 -12 -65 -33 -113 -45 -48 -13 -85
-25 -83 -27 9 -9 163 38 192 58 l30 21 -21 -22 c-19 -21 -165 -71 -205 -71
-27 0 -82 -43 -86 -67 -3 -23 -2 -23 140 -23 129 0 809 45 1052 70 125 13 321
33 580 61 168 17 415 55 665 100 30 6 123 14 205 20 83 5 179 14 215 20 87 14
93 15 110 23 9 4 25 5 35 4 30 -4 134 12 140 22 3 4 38 11 77 15 40 4 107 16
148 27 59 16 124 22 300 28 124 5 270 15 325 24 162 26 377 82 580 152 105 36
200 66 212 67 11 1 19 5 17 8 -7 11 74 39 109 38 26 -1 24 -3 -15 -9 -25 -5
-55 -13 -65 -20 -17 -11 -17 -11 2 -5 11 4 38 9 59 12 l39 6 -7 -36 c-4 -20
-19 -62 -34 -94 -38 -82 -42 -196 -9 -273 13 -30 28 -54 35 -53 6 2 9 -4 5
-13 -7 -20 98 -124 155 -153 55 -28 147 -51 197 -50 31 1 25 3 -27 10 -37 5
-92 18 -122 30 -52 19 -144 82 -161 110 -4 6 17 -9 48 -34 70 -57 143 -84 263
-98 283 -31 676 74 899 242 38 28 64 45 56 36 -28 -34 -145 -110 -244 -158
-56 -28 -91 -47 -77 -43 42 11 182 84 235 122 75 54 155 122 155 133 0 6 -5 7
-12 3 -7 -4 -8 -3 -4 5 4 6 12 9 17 6 5 -3 20 19 34 51 29 65 29 68 13 58 -8
-4 -10 -3 -5 2 5 5 14 9 19 9 6 0 13 6 16 14 3 9 0 11 -9 6 -8 -5 -11 -4 -6 1
5 5 14 9 19 9 6 0 13 6 16 14 3 9 0 11 -8 6 -9 -6 -9 -3 -1 13 14 26 14 172 1
207 -7 17 -7 24 0 20 23 -14 7 18 -27 56 -49 54 -131 109 -151 102 -10 -4 -13
-2 -8 5 4 8 2 10 -8 6 -8 -3 -32 4 -54 15 -22 11 -93 37 -158 57 -140 43 -264
53 -419 35 -74 -9 -101 -9 -109 0 -8 8 -2 10 24 5 19 -3 29 -3 21 1 -8 3 29
19 85 35 117 35 306 123 384 179 53 39 35 18 -25 -29 -17 -13 -23 -20 -15 -16
30 15 129 94 153 123 42 51 60 112 55 189 -5 70 -40 168 -57 158 -5 -4 -13 -1
-17 5 -4 8 -3 9 4 5 7 -4 12 -3 12 3 0 12 -86 98 -113 113 -12 6 4 -13 34 -43
46 -45 47 -47 7 -11 -26 24 -86 61 -133 82 -47 22 -85 41 -85 44 0 3 34 -11
75 -29 41 -19 75 -32 75 -29 0 2 -33 20 -72 39 -40 19 -97 48 -127 65 -97 54
-139 62 -341 65 -102 2 -203 1 -225 -1z m597 -128 c41 -19 84 -46 96 -60 11
-14 40 -33 63 -41 56 -20 85 -40 100 -66 10 -19 9 -20 -11 -14 -20 6 -21 5
-11 -14 7 -12 9 -21 7 -21 -3 0 -15 18 -26 39 -21 42 -80 77 -170 101 -71 19
-150 51 -150 60 0 5 15 11 33 13 17 2 1 5 -37 5 -75 2 -82 18 -11 25 22 2 41
4 41 5 1 1 35 -13 76 -32z m-254 -42 c99 -20 181 -57 222 -99 18 -19 37 -32
41 -29 4 2 11 -1 15 -7 5 -8 3 -9 -6 -4 -10 6 -11 4 -5 -11 43 -104 47 -121
43 -184 -8 -108 -44 -160 -167 -239 -35 -23 -60 -41 -55 -41 11 0 111 66 141
93 13 11 25 18 27 16 8 -7 -106 -88 -161 -114 -88 -42 -167 -58 -298 -58 -196
0 -363 52 -465 144 l-45 40 52 -40 c29 -22 77 -51 107 -65 71 -34 208 -66 271
-65 46 2 45 2 -20 9 -149 16 -289 69 -362 138 -21 20 -41 36 -45 37 -3 0 -10
4 -15 9 -5 5 -3 6 5 2 16 -9 15 -6 -4 40 -12 28 -15 59 -12 109 4 62 12 88 56
179 3 5 -1 5 -9 0 -12 -6 -12 -5 0 9 8 10 16 15 19 12 3 -2 21 10 40 27 48 41
108 67 211 88 112 24 313 26 419 4z m547 -228 c35 -43 36 -46 21 -69 -18 -26
-50 -127 -43 -133 5 -5 23 39 31 79 4 15 11 27 16 27 13 0 -18 -100 -42 -133
-20 -27 -198 -154 -198 -141 0 4 8 16 18 27 9 11 11 17 5 13 -25 -14 -13 10
17 34 17 14 30 29 30 33 0 5 11 18 25 29 27 21 34 51 10 42 -8 -4 -15 -2 -15
4 0 5 7 15 15 22 8 7 15 19 15 26 0 8 7 14 16 14 13 0 14 3 5 14 -12 14 -4 76
10 76 5 0 15 -13 23 -29 14 -27 13 -32 -19 -99 -18 -38 -51 -89 -72 -113 l-38
-42 42 24 c31 17 44 33 52 61 7 21 27 71 46 110 19 40 35 77 35 83 0 6 -11 27
-25 48 -35 50 -24 47 20 -7z m-167 -130 c-14 -169 -187 -309 -458 -373 -94
-22 -139 -27 -249 -28 -85 0 -140 4 -150 11 -10 8 -22 9 -36 2 -52 -24 -345
162 -345 218 0 4 10 -1 23 -12 49 -43 62 -49 34 -16 -23 28 -36 62 -24 62 6 0
72 -95 72 -104 0 -4 25 -22 55 -38 30 -16 54 -33 53 -38 -1 -5 19 -17 45 -27
36 -14 74 -18 162 -17 249 1 337 5 390 16 65 14 316 140 312 157 -1 6 10 30
24 53 46 72 74 141 74 183 1 34 2 37 11 21 6 -10 9 -42 7 -70z m-1144 -81 c3
-8 3 -21 0 -29 -7 -19 135 -164 145 -148 5 9 17 7 46 -8 22 -11 45 -20 52 -20
7 0 13 -4 13 -10 0 -14 -5 -13 -50 10 -22 11 -43 20 -47 20 -4 -1 9 -10 31
-21 46 -25 36 -45 -18 -35 -25 5 -34 11 -29 21 3 8 0 15 -6 15 -22 0 -125 44
-113 48 8 2 -1 19 -28 48 -40 44 -49 67 -29 80 6 3 9 15 6 25 -6 23 18 26 27
4z m-574 -309 c0 -22 73 -29 219 -24 117 5 231 -6 231 -23 0 -4 -7 -13 -16
-20 -14 -11 -18 -11 -29 4 -10 14 -29 17 -113 17 -55 0 -103 -4 -107 -9 -3 -5
-30 -13 -59 -16 -30 -4 -57 -13 -60 -20 -2 -7 -16 -15 -31 -17 -20 -4 -25 -2
-20 9 4 12 0 14 -17 8 -13 -4 -59 -10 -103 -12 -43 -3 -88 -11 -100 -18 -23
-14 -75 -28 -75 -20 0 3 10 10 23 15 12 5 15 9 7 9 -8 1 -28 -8 -45 -19 -16
-11 -37 -20 -45 -20 -9 1 -5 7 10 15 17 10 20 14 9 15 -9 0 -22 -7 -30 -16
-17 -21 -69 -47 -69 -35 0 6 12 18 28 26 15 9 19 14 8 10 -10 -3 -38 -10 -62
-16 -25 -7 -44 -17 -44 -25 0 -8 -2 -14 -4 -14 -2 0 -12 -3 -22 -7 -12 -4 -15
-3 -10 5 10 16 -15 15 -37 -2 -16 -12 -15 -15 17 -30 42 -20 73 -20 110 -1 39
20 44 12 12 -18 -14 -13 -26 -32 -26 -40 0 -10 -6 -14 -15 -11 -8 4 -15 12
-15 20 0 11 -55 34 -83 34 -5 0 -23 7 -40 15 -18 8 -57 23 -87 33 -47 16 -61
17 -95 6 -22 -7 -59 -13 -83 -13 -37 -1 -41 -3 -33 -18 5 -10 14 -29 20 -43
10 -23 11 -23 5 8 -3 20 -1 32 5 32 6 0 11 -6 11 -13 0 -8 10 -13 22 -13 17 1
24 -7 33 -37 11 -40 25 -40 25 0 0 38 29 41 61 5 18 -20 31 -50 38 -89 7 -32
19 -73 27 -92 14 -32 14 -35 -7 -57 -30 -32 -35 -30 -48 14 l-10 37 5 -45 c4
-25 10 -49 15 -55 15 -16 10 -22 -15 -18 -27 6 -49 48 -60 118 -4 22 -11 47
-16 55 -17 27 -11 -23 10 -85 21 -62 27 -120 10 -110 -5 3 -10 18 -10 33 0 18
-3 23 -10 16 -8 -8 -7 -19 0 -39 13 -34 6 -43 -20 -27 -13 8 -20 8 -20 2 0
-16 -51 -33 -63 -21 -5 5 -18 43 -28 83 -9 40 -18 62 -18 48 0 -14 6 -50 14
-80 8 -30 12 -56 9 -59 -7 -8 -28 18 -41 52 l-13 32 5 -40 c5 -33 2 -42 -14
-52 -24 -15 -28 -10 -47 56 l-14 46 6 -55 c11 -115 -38 -9 -97 210 -13 47 -25
76 -27 64 -2 -11 18 -85 43 -164 25 -79 45 -155 43 -169 -3 -25 -4 -24 -25 15
-12 22 -40 105 -63 184 -39 139 -60 193 -45 120 11 -55 63 -233 80 -273 20
-49 20 -74 0 -57 -12 10 -16 9 -21 -3 -5 -15 -54 -19 -54 -4 0 5 -17 -2 -37
-14 -22 -14 -38 -19 -40 -12 -3 8 -13 8 -35 -1 -24 -8 -32 -8 -35 2 -6 17 -23
15 -23 -3 0 -8 6 -15 13 -15 6 -1 -5 -10 -26 -21 -44 -23 -61 -19 -24 6 22 14
24 19 14 45 -6 17 -15 30 -19 30 -11 0 -10 -8 3 -31 13 -26 -4 -49 -37 -49
-30 0 -31 17 -1 23 12 2 7 3 -10 1 -18 -1 -35 2 -39 7 -4 7 -12 5 -22 -4 -10
-8 -47 -18 -84 -22 -60 -6 -68 -5 -77 14 -6 11 -11 29 -11 40 0 12 -3 21 -7
21 -20 -1 -32 -18 -30 -44 1 -16 -4 -31 -10 -33 -9 -3 -13 6 -13 26 0 17 -4
31 -10 31 -5 0 -7 -15 -5 -32 4 -26 3 -29 -4 -13 -8 17 -10 17 -10 3 -1 -9 -6
-20 -13 -24 -8 -5 -10 3 -5 28 4 25 1 35 -8 35 -9 0 -12 -10 -8 -34 4 -21 2
-33 -6 -33 -6 0 -11 9 -11 19 0 11 -3 26 -6 35 -11 29 -20 16 -16 -24 3 -25 0
-40 -7 -40 -6 0 -11 15 -11 34 0 19 -5 38 -11 42 -8 5 -9 -6 -4 -35 9 -52 -9
-55 -23 -3 l-10 37 -2 -35 -2 -35 -8 30 -8 30 -1 -33 c0 -18 -5 -31 -11 -27
-5 3 -7 11 -5 18 8 20 -12 44 -25 31 -9 -9 -8 -17 1 -33 10 -16 11 -23 2 -32
-9 -9 -15 -4 -27 22 -13 29 -15 30 -13 9 2 -30 -16 -42 -21 -14 -8 41 -23 38
-16 -3 4 -29 3 -43 -5 -43 -6 0 -11 5 -11 11 0 8 -4 9 -13 0 -17 -14 -27 -4
-27 26 0 12 -5 23 -11 23 -7 0 -8 -11 -4 -31 5 -24 4 -30 -6 -27 -8 3 -15 17
-17 31 -2 15 -8 27 -13 27 -5 0 -7 -11 -3 -25 4 -15 2 -25 -5 -25 -6 0 -11 11
-11 25 0 14 -5 25 -11 25 -7 0 -8 -11 -4 -30 8 -38 -7 -39 -23 -2 l-12 27 4
-28 c4 -33 -17 -32 -22 1 -2 12 -8 20 -13 17 -5 -4 -6 -18 -3 -32 5 -18 3 -24
-5 -19 -6 4 -11 16 -11 27 0 29 -18 23 -22 -8 l-4 -28 -10 24 c-8 18 -13 21
-19 12 -6 -11 -9 -10 -17 0 -7 10 -8 4 -4 -19 4 -20 2 -31 -4 -27 -6 3 -10 15
-10 26 0 11 -4 18 -10 14 -6 -4 -6 -15 0 -31 8 -20 7 -25 -2 -22 -7 3 -15 13
-16 24 -2 10 -9 24 -14 29 -7 7 -9 1 -4 -17 4 -17 2 -28 -4 -28 -5 0 -10 9
-10 21 0 17 -5 20 -32 17 -28 -3 -33 -6 -30 -27 2 -15 0 -21 -7 -17 -6 4 -11
14 -11 22 0 8 -4 14 -9 14 -6 0 -7 -17 -4 -37 6 -40 -12 -37 -19 2 -4 23 -38
34 -38 11 0 -8 8 -16 17 -18 16 -3 15 -6 -5 -26 -12 -12 -28 -20 -33 -16 -8 4
-7 9 1 14 17 11 8 53 -12 56 -10 1 -18 -2 -18 -7 0 -5 -11 -7 -25 -5 -22 4
-24 2 -19 -20 4 -14 2 -24 -5 -24 -6 0 -11 7 -11 16 0 10 -6 14 -15 11 -8 -4
-17 -2 -20 3 -12 20 -26 9 -23 -17 2 -16 -1 -30 -7 -33 -5 -3 -11 7 -13 23 -2
15 -8 27 -13 27 -5 0 -9 -12 -10 -27 0 -28 -1 -28 -11 -5 -13 27 -32 30 -23 3
3 -11 1 -22 -5 -26 -6 -4 -10 4 -10 19 0 14 -4 26 -10 26 -5 0 -10 -5 -10 -11
0 -6 -9 -8 -20 -4 -17 5 -20 2 -20 -24 0 -17 -5 -31 -10 -31 -6 0 -10 6 -9 13
3 23 -1 37 -10 37 -5 0 -7 -10 -5 -22 l5 -23 -17 23 c-20 27 -28 27 -64 2 -21
-15 -30 -17 -33 -8 -4 9 -8 10 -14 2 -4 -6 -28 -11 -52 -10 -28 1 -45 -4 -49
-12 -3 -8 -7 -10 -11 -4 -11 17 -143 -7 -170 -31 -20 -18 -23 -19 -18 -4 5 13
1 17 -17 17 -13 0 -29 -7 -37 -16 -8 -10 -21 -13 -37 -9 -36 9 -175 -16 -190
-34 -11 -13 -14 -14 -21 -2 -7 11 -25 12 -87 7 -77 -7 -144 -19 -177 -32 -25
-9 -21 19 6 43 24 23 80 53 97 53 20 0 10 -19 -17 -34 -16 -8 -23 -15 -17 -16
6 0 31 16 55 35 38 30 79 46 79 30 0 -3 -15 -19 -33 -35 -17 -16 -28 -30 -24
-30 4 0 29 20 55 44 48 45 123 79 93 43 -19 -24 -9 -21 46 12 26 16 86 39 133
51 47 12 129 35 183 50 53 15 97 25 97 22 0 -3 -15 -22 -32 -42 -21 -22 -14
-18 17 11 45 42 61 49 155 74 150 39 1178 319 1251 340 11 4 25 -16 53 -75 20
-44 41 -80 46 -80 5 0 7 -13 4 -28 -4 -20 0 -34 13 -47 18 -18 18 -18 21 9 5
41 -46 198 -72 219 l-21 19 25 -6 c14 -3 36 -9 49 -13 18 -4 22 -3 16 7 -6 10
0 12 24 8 33 -5 30 7 -4 14 -19 5 -19 5 -1 13 12 5 35 2 62 -8 24 -9 44 -12
44 -8 0 5 -12 12 -27 16 -23 5 -25 8 -12 15 10 6 30 5 50 0 44 -13 82 -13 74
0 -3 6 -23 10 -43 11 -35 0 -36 1 -12 11 14 5 51 8 84 5 54 -5 67 5 21 16 -11
3 16 6 60 7 83 2 166 16 115 19 -14 1 -32 6 -40 12 -11 8 4 9 53 4 41 -3 66
-2 63 4 -9 13 61 23 83 12 11 -6 25 -27 31 -47 7 -19 15 -33 18 -30 3 3 -1 24
-8 46 -7 22 -10 43 -7 46 10 11 37 -17 37 -37 0 -11 4 -19 10 -19 6 0 6 10 -1
27 -7 19 -6 28 1 33 12 8 -36 20 -77 20 -13 0 -21 4 -18 10 3 5 27 7 53 5 35
-4 41 -3 22 4 -18 7 -3 9 58 10 54 1 88 6 97 14 7 7 49 21 93 32 45 10 80 23
79 28 -5 24 98 49 228 57 72 4 113 8 93 8 -21 1 -38 6 -38 11 0 8 193 26 318
29 48 2 62 -1 62 -12z m1264 -45 c3 -5 -15 -12 -40 -16 -81 -12 -313 -72 -499
-129 -308 -95 -596 -178 -690 -197 -58 -12 -126 -18 -190 -17 l-100 1 130 8
c134 7 186 18 467 99 76 22 140 40 144 40 4 0 5 2 2 5 -3 3 -68 -12 -144 -34
-288 -83 -334 -93 -462 -98 l-123 -6 -32 30 c-45 42 -88 73 -100 73 -6 0 11
-14 36 -31 26 -17 47 -33 47 -36 0 -5 -10 1 -60 35 -21 14 -44 22 -58 19 -34
-7 -22 14 30 49 102 69 292 99 762 119 338 14 568 37 751 74 108 22 122 24
129 12z m-79 -84 l40 1 -30 -13 c-16 -8 -36 -14 -43 -15 -7 0 -39 -13 -72 -30
-33 -16 -73 -30 -89 -30 -16 0 -42 -5 -58 -11 -15 -5 -29 -6 -31 -1 -1 4 -26
5 -55 1 -28 -4 -61 -8 -72 -9 -19 -1 -19 -2 -1 -9 15 -6 -3 -15 -75 -41 -52
-18 -105 -42 -118 -52 -13 -10 -33 -18 -45 -18 -11 0 -79 -20 -151 -44 -71
-24 -170 -56 -220 -71 -49 -15 -111 -38 -137 -51 -26 -13 -50 -24 -53 -24 -10
0 -5 19 8 23 16 6 -33 -3 -55 -9 -30 -9 -20 13 12 26 17 7 29 14 27 16 -6 6
-77 -19 -77 -28 0 -5 -11 -20 -25 -33 -24 -25 -55 -33 -55 -15 0 6 11 10 24
10 14 0 28 5 31 11 11 17 -66 -1 -93 -22 -28 -22 -75 -33 -102 -24 -31 10 -14
25 28 25 34 0 81 18 57 21 -5 1 6 5 25 10 22 5 2 6 -50 2 -47 -3 -97 -12 -112
-19 -32 -17 -48 -18 -48 -4 0 6 7 10 15 10 8 0 15 5 15 11 0 7 -10 9 -25 5
-14 -4 -25 -2 -25 3 0 4 16 11 35 14 35 6 65 27 65 45 0 16 48 24 200 32 80 4
159 13 175 20 17 6 59 13 95 15 43 3 89 14 138 34 40 17 168 60 285 97 117 36
231 72 255 79 23 8 42 11 42 7 0 -4 -50 -22 -110 -41 -61 -19 -109 -36 -106
-38 7 -7 281 80 299 95 23 21 165 52 197 44 14 -3 43 -5 65 -5z m498 -61 c106
-27 143 -43 172 -77 11 -12 14 -19 6 -14 -9 5 -12 3 -9 -6 3 -8 10 -13 16 -12
6 2 9 -4 6 -11 -3 -8 0 -24 6 -37 7 -12 18 -56 26 -98 l14 -76 -5 65 c-3 59
-3 61 6 25 6 -22 8 -57 6 -77 -7 -52 0 -48 14 8 9 36 14 43 21 30 15 -28 38
-19 38 15 0 29 2 30 37 27 33 -3 39 -7 44 -33 6 -25 7 -22 8 18 1 34 5 47 16
47 11 0 15 -17 18 -72 3 -62 3 -58 5 30 2 104 16 131 26 49 11 -87 14 -172 6
-152 -6 15 -9 16 -9 4 -2 -45 -66 -142 -140 -211 -85 -80 -258 -185 -287 -174
-9 4 -23 1 -30 -5 -10 -8 -14 -8 -14 0 0 6 35 29 78 50 42 22 74 40 70 41 -3
0 -63 -28 -131 -61 -84 -41 -139 -62 -169 -64 -27 -1 -30 -1 -9 2 24 3 31 7
21 13 -9 6 -2 14 26 29 58 30 32 25 -65 -13 -47 -19 -111 -37 -141 -41 -72 -8
-57 5 23 21 38 7 50 12 32 13 -37 1 -134 -24 -148 -38 -14 -14 -57 -14 -57 0
0 6 -6 9 -12 6 -7 -3 -21 -8 -30 -12 -10 -4 -18 -3 -18 3 0 6 8 13 18 15 10 3
4 5 -13 6 -115 4 -187 14 -192 27 -3 8 -14 14 -24 14 -19 0 -65 38 -56 46 2 3
39 -9 82 -26 43 -16 81 -28 83 -25 3 3 11 0 18 -5 33 -29 408 4 520 44 35 13
64 20 64 15 0 -5 -5 -9 -12 -9 -6 0 -9 -3 -6 -6 4 -3 17 1 30 9 12 8 34 18 48
21 24 7 24 6 6 -8 -33 -26 -11 -18 52 19 32 19 72 50 88 68 l29 32 -37 -34
c-20 -18 -41 -30 -47 -27 -6 4 -31 -5 -56 -19 -24 -15 -50 -25 -57 -22 -7 2 4
11 25 20 20 9 37 19 37 22 0 3 -9 1 -21 -5 -46 -25 -26 0 35 44 83 59 165 168
152 203 -5 12 -9 13 -21 3 -18 -15 -20 -34 -3 -24 7 4 8 3 4 -5 -4 -6 -11 -9
-16 -6 -4 3 -16 -8 -25 -23 l-18 -27 24 20 24 20 -24 -28 c-14 -15 -27 -25
-29 -22 -3 2 -28 -16 -56 -42 -28 -25 -75 -59 -103 -75 -29 -17 -53 -32 -53
-34 0 -6 56 23 95 48 l30 20 -25 -22 c-38 -34 -165 -95 -260 -124 -104 -33
-277 -45 -387 -27 -80 14 -178 57 -208 91 -11 13 -14 20 -6 15 11 -6 13 -4 6
11 -35 87 5 263 81 353 39 46 192 144 276 178 38 14 66 28 64 30 -8 8 -132
-49 -205 -94 -42 -26 -98 -68 -126 -92 l-50 -45 40 42 c50 53 177 136 270 176
183 78 309 92 468 52z m-714 -68 c-7 -13 -42 -61 -79 -108 -77 -97 -92 -123
-85 -142 3 -8 -1 -41 -9 -73 l-15 -60 4 81 c2 51 10 94 20 114 16 31 16 34 -1
44 -17 9 -16 11 11 17 l30 7 -35 2 c-33 2 -34 2 -10 11 18 6 8 8 -38 6 -77 -4
-69 8 15 22 51 8 72 18 118 55 62 51 94 61 74 24z m-3827 -335 c-22 -27 -51
-58 -65 -71 -27 -26 -84 -41 -71 -20 4 7 -4 2 -19 -11 -14 -12 -30 -20 -36
-17 -5 4 -13 1 -16 -5 -4 -5 -13 -8 -21 -5 -7 3 -16 1 -19 -4 -4 -6 -14 -10
-23 -10 -11 0 4 20 41 58 63 63 79 96 20 41 l-37 -34 29 35 c15 19 33 35 40
35 7 0 20 6 29 14 14 12 16 11 16 -5 1 -18 1 -18 11 -1 5 9 14 17 19 17 5 0 7
-8 3 -17 -4 -12 5 -8 25 11 43 40 40 26 -5 -26 -36 -42 -35 -41 17 7 52 49 53
42 1 -20 -14 -16 -1 -6 29 23 68 65 85 68 32 5z"/>
<path d="M2898 1345 c-3 -4 -2 -20 4 -36 16 -46 5 -57 -25 -25 -21 22 -27 25
-27 12 0 -13 -4 -15 -19 -7 -15 8 -20 7 -26 -7 -6 -16 -7 -16 -19 1 -18 23
-29 22 -21 -3 5 -14 2 -20 -9 -20 -9 0 -16 7 -16 15 0 8 -5 15 -10 15 -6 0 -8
-11 -4 -25 7 -27 -10 -35 -20 -10 -3 8 -10 15 -15 15 -14 0 -23 -52 -12 -63 8
-8 11 -5 12 9 1 10 5 -19 9 -64 5 -56 13 -89 24 -100 9 -10 16 -12 16 -5 0 7
-5 15 -10 18 -12 7 -4 25 10 25 6 0 21 -18 36 -41 14 -22 28 -38 31 -35 3 3 1
12 -5 19 -7 8 -9 17 -5 20 13 13 31 7 58 -20 l28 -28 -6 26 c-5 19 -2 29 8 33
10 3 15 -1 15 -12 1 -9 7 -30 15 -47 14 -29 14 -29 8 21 -4 41 -2 52 11 57 13
5 16 -1 17 -31 2 -28 4 -22 9 23 13 103 12 155 -3 149 -10 -3 -20 15 -33 61
-10 37 -22 64 -26 60z"/>
</g>
</svg>
